/* XPM */
static char *result[] = {
/* columns rows colors chars-per-pixel */
"128 128 82 1 ",
"  c #003F7C",
". c #02427E",
"X c #064581",
"o c #084681",
"O c #0E4B84",
"+ c #124D86",
"@ c #184F84",
"# c #144F88",
"$ c #175187",
"% c #195286",
"& c #165188",
"* c #1D568C",
"= c #1F588D",
"- c #20578C",
"; c #20598E",
": c #2A5E8F",
"> c #265D91",
", c #295F92",
"< c #2E6294",
"1 c #316596",
"2 c #386590",
"3 c #346798",
"4 c #366999",
"5 c #3B6C9B",
"6 c #3F709D",
"7 c #42719F",
"8 c #4574A0",
"9 c #4977A2",
"0 c #4C79A4",
"q c #517DA7",
"w c #547FA8",
"e c #5681A9",
"r c #5B85AC",
"t c #6189AF",
"y c #6C8CAA",
"u c #658CB1",
"i c #698EB2",
"p c #6C91B4",
"a c #7195B6",
"s c #7897B5",
"d c #7999B7",
"f c #7497B8",
"g c #7698B9",
"h c #7C9CBB",
"j c #81A1BF",
"k c #85A4C1",
"l c #89A6C3",
"z c #8DA9C5",
"x c #92ACC5",
"c c #94AFC9",
"v c #98B0C7",
"b c #95B0C9",
"n c #9CB5CD",
"m c #A1B6CA",
"M c #A2B9CE",
"N c #A9BCCE",
"B c #A5BCD1",
"V c #A9BFD3",
"C c #B1C0CF",
"Z c #ACC1D4",
"A c #B1C5D7",
"S c #B3C6D8",
"D c #B6C9DA",
"F c #BCCCDC",
"G c #C1D0DF",
"H c #C5D3E1",
"J c #C8D6E3",
"K c #CEDAE6",
"L c #D1DCE7",
"P c #D3DEE9",
"I c #DCE0E5",
"U c #D6E0EA",
"Y c #DCE5ED",
"T c #E1E6EB",
"R c #E0E8EF",
"E c #E4EBF1",
"W c #E9EEF4",
"Q c #EDF2F6",
"! c #F0F4F7",
"~ c #F2F6F9",
"^ c #F6F9FB",
"/ c #FFFFFF",
/* pixels */
"////////////////////////////////////////////////////////////////////////////////////////////////////////////////////////////////",
"////////////////////////////////////////////////////////////////////////////////////////////////////////////////////////////////",
"///////////////////////////////////////////////////////////////^P//^////////////////////////////////////////////////////////////",
"//////////////////////////////////////////////////////////////H0&uU//^//////////////////////////////////////////////////////////",
"/////////////////////////////////////////////////////////^//Uu&+;+=hW///////////////////////////////////////////////////////////",
"//////////////////////////////////////////////////////////Wj;+=;*=*+<n^//^//////////////////////////////////////////////////////",
"////////////////////////////////////////////////////////^n<O*******;&O8A////////////////////////////////////////////////////////",
"////////////////////////////////////////////////////^//W8.*>********;;#+eK//////////////////////////////////////////////////////",
"///////////////////////////////////////////////////////^Hr&&;==*******=;+*pY////////////////////////////////////////////////////",
"///////////////////////////////////////////////////QkrK///D8O&;***********O>z!//^///////////////////////////////////////////////",
"//////////////////////////////////////////////^///B1+O*gE//^n<O*;*********;*O4B^////////////////////////////////////////////////",
"////////////////////////////////////////////////F9+&==*O<zQ//Wh=+=;*********;&+0F///////////////////////////////////////////////",
"///////////////////////////////////////////^//Pu++;=***>&+5Z///Pt&&=;********;;+&uP/////////////////////////////////////////////",
"////////////////////////////////////////////Ed*+==*******=&+qF///F9+&;=********=*+*hE///////////////////////////////////////////",
"//////////////////////////////////////////^c<O*;**********;;+&iU//^B1O*;*********;*+<b!/////////////////////////////////////////",
"/////////////////////////////////////////Z5O*;**************;*+>jE//Qk;+=;*********;&O8Y////////////////////////////////////////",
"///////////////////////////////////////Hw+&;=**********=*****=>&O1n^//Yu&+;*********>>+J////////////////////////////////////////",
"/////////////////////////////////////Up&+;;********===;&*****=&=;&O8D///H0+&>*******&**J/Vn/////////////////////////////////////",
"///////////////////////////////////Qk;+*;*********=&+&&==********;;#+rJ///B5O&;********J/xX0F///////////////////////////////////",
"/////////////////////////////////^n4O*=*********;*O<bF9O&;=****=***;=+*aR//Qz>&=*******J/b&&&uY/////////////////////////////////",
"////////////////////////////////D8+&;*********=*+=gE//^B5O&;*********;*O<zQ//E9&;******J/b+;=O:jQ///////////////////////////////",
"//////////////////////////////Pr&&;**********;##rL//QP//Qz,O*;*********;&O5B^/aO;*****&J/b+=*=*O3B^/////////////////////////////",
"//////////////////////////////p.;;=*******=;&+9F///B5;dW//Ya&&==***=****;;+;^/i+;******J/b+;**=;&oZ/////////////////////////////",
"////////////////////////////^/gO;********;*O4n^//F0O&&O<n^//Je+&==*********<Q/pO;******J/bO=***=;%N/////////////////////////////",
"//////////////////////////////fO;=*****;*O>lW//Uu&+;**;&O8D///A7O*********&<!/p+;******J/c+-****;&N/////////////////////////////",
"////////////////////////////^/fO;****;;+&pY//Wk>+;;***=;=&#tP//~n1O*;****;&<!/p+;******J/c+;****;+B/^///////////////////////////",
"////////////////////////////^/fO;**;;&+eH//^n3O&;********=;OOc///Wh>+*=**=*<!/p+;*****%J/bO;****=+B/////////////////////////////",
"//////////////////////////////fO;*;&+5Z///D9+&>;********;*+>dY/////Pu&+;;;&<!/iO;******J/b+;****=+B/////////////////////////////",
"//////////////////////////////fO;*O<b!//Pt&#;*********;;#&tP/////////F0+&;*<Q/p+;******J/bO;****=+B/^///////////////////////////",
"////////////////////////////^/gO#;hW//Eh=O*=********;;&+9F/////////////B5+&1!/pO;******J/b+;****=+B/////////////////////////////",
"//////////////////////////////pXuL//^b1O*;*********;*O4B////////////////!z>*!/p+*******J/bO=*=**=+M/////////////////////////////",
"//////////////////////////////nZ///A7+&;*********;*O>l!//^/////////////^//Yk!/p+;*****-J/b+;****;+M/////////////////////////////",
"/////////////////////////////////Jr+&;=********=*+*aY////////////////////^////pO-******J/b+;****=+N/////////////////////////////",
"///////////////////////////////Ef*+=;********=;&+eJ///////////////////////////a+=******J/c+=****=&M/////////////////////////////",
"////////////////////////////^/Z>O*=*********>&O8A///////////////////////////^/sO-******H/c+;****=+M/////////////////////////////",
"//////////////////////////////pX>*********>&O1b^//////////////////////////////p@-******J/x+;****=+B/////////////////////////////",
"//////////////////////////////gO;*******;=+;jE//^bB///////////////////////////p%-******J/v+==***=+B/^///////////////////////////",
"////////////////////////////^/fO;***=***+&uU///D9.l/^/////////////////////////a.;**=***J/b+-****=+B/////////////////////////////",
"//////////////////////////////fO;******&0G///Lr&%&z/////////////////////////^/p+=******H/b+=****=+M/////////////////////////////",
"////////////////////////////^/fO;****;&x///Yg*+;-+z///////////////////////////a+=*****=J/b+-****=+M/////////////////////////////",
"//////////////////////////////fO;****;&L/!x,O*;*-+z///////////////////////////f#=***=*OH/c+;****=&M/////////////////////////////",
"////////////////////////////^/fo;****;&H/ZX*;***-Oz///////////////////////////pO-*=*+*hQ/nO;****=+B/^///////////////////////////",
"//////////////////////////////fO;*****&H/Z&;****-+z/////////////////////////^/pO;;&&tL///k+;****=+B/////////////////////////////",
"////////////////////////////^/fO;****;&H/Z&*****=+x/^/////////////////////////p&*O9F///Ya=******=&M/////////////////////////////",
"////////////////////////////^/fO;****;&H/Z#******#j///////////////////////////i.5M///Ql>+&;*****=+B/////////////////////////////",
"//////////////////////////////fO;;****&H/Z#;*****@m///////////////////////////hhQ//^B4O*;*=*****=+B/////////////////////////////",
"////////////////////////////^/go;*****&H/Z#;****-+x/^/////////////////////////^///F0+&;*********;OM/^///////////////////////////",
"//////////////////////////////fO;****;&H/Z#;****-+z//////////////////////////^//Pt&+;;********=;&&D/////////////////////////////",
"//////////////////////////////fO;****;&G/Z#-****-+z///////////////////////////Eh*O*;*******&;>&OqG//////////////////////////////",
"////////////////////////////^/fO;*****#G/V#*****=+z///^/////////////////////^b<O*>********&>&O5Z////////////////////////////////",
"//////////////////////////////dO;*****@G/Z&*****-Oz/YJ//////////////////^//Z5O&>*********=*+,z!//PL/////////////////////////////",
"////////////////////////////^/hO;;****@F/Z#-****-+z/H*sR/////////////////Jw+&=>&*******>=+*fR//Wk*n/////////////////////////////",
"//////////////////////////////dO;*****#G/Z#-=***;Oz/H*+<z^//^//////////Yp&+;;********;;#+rJ///B4++B/////////////////////////////",
"////////////////////////////^/dO;*-**;@G/Z#*****;+l/H&=*+5Z//////////Qk>+*;*********;&O7A///F9+&;#B/^///////////////////////////",
"//////////////////////////////h+;*--*;@G/Z#*****;Oz/J*&;;&+qH//////^B4O*>&********>*O<b^//Pu&+;;=+B/////////////////////////////",
"////////////////////////////^/dO;*****&G/Z#;****;+z/J&****;+*pY///!r &;=*=******=*O=dW//Wk=O;;**=+B/////////////////////////////",
"////////////////////////////^/hO;**=**&H/Z#*****;+l/J******;*O>lQ//Yh*+=;****&=;#&rL//^n<O&>****=+B/////////////////////////////",
"//////////////////////////////sO;****;&H/Z#;*****+l/J&*******=&+4B///Pr+&;**=>*O8F///D8O&>******;+B/////////////////////////////",
"////////////////////////////^/d+;*****&H/Z#**-***+z/H**********>&+0F///D8O**&O1n^//Lr##;=*******=&B/////////////////////////////",
"//////////////////////////////s.;=****&H/V#;****;+l/H+;=*********;&&uU//!n<O>kW//Eg>+;;*********;oM/^///////////////////////////",
"//////////////////////////////J9+&;**=&H/V#*****;+x/EqO&;*********;*+;jW//EzP//!c<O&>*********;*O5K/////////////////////////////",
"////////////////////////////////B4O*;*&H/Z&******+h//^V5+*;*********;*O1n^////A7O*=*&*******;*O<b^//////////////////////////////",
"/////////////////////////////////Qk;O=*H/Z+;*******tU//Qz,+*;********;;&+8F^Je+&>*********==O=dR////////////////////////////////",
"///////////////////////////////////Yp&OH/Z#********+;jW//Yf*+==********=;+&0;+==*********;&&tU//////////////////////////////////",
"//////////////////////////////////^//F7H/Z&********=*O<n^//Jr&&;=********;*&*;*********;&+9F////////////////////////////////////",
"///////////////////////////////////////!/V+>*********=*O7A///A8O&>*********;*********;*O4B//////////////////////////////////////",
"/////////////////////////////////////////F&+==*********;&+rJ//^n1O*=***************=*O>lQ///////////////////////////////////////",
"//////////////////////////////////////////Pr##;*********=;O*fY//Wj>O*;***********==+&fY//^//////////////////////////////////////",
"////////////////////////////////////////////D8+&;=********;*O>zQ//Yi&+;********;>++eH///////////////////////////////////////////",
"/////////////////////////////////////////////^M3O*;*********>&O5B^//Hq+&>;****>&O6A/////////////////////////////////////////////",
"///////////////////////////////////////////////Qk;O=;********=>&+0F///V5O&>&;*O<b^//////////////////////////////////////////////",
"//////////////////////////////////////////////^//Ui*+;;*******&;;+&uL//!z<+&+*hW////////////////////////////////////////////////",
"///////////////////////////////////////////////////H0+&;*********;*+;hE//Eg;uU//////////////////////////////////////////////////",
"/////////////////////////////////////////////////////Z6O&>*********;*O<nQ//E////////////////////////////////////////////////////",
"//////////////////////////////////////////////////////^c<O*=********=>& r!//////////////////////////////////////////////////////",
"////////////////////////////////////////////////////////Ed*+==*****;*O;jE///////////////////////////////////////////////////////",
"//////////////////////////////////////////////////////////Lt&&==*;;+&iY/////////////////////////////////////////////////////////",
"////////////////////////////////////////////////////////////D9O&;&+qH///////////////////////////////////////////////////////////",
"//////////////////////////////////////////////////////////^///M3O5Z//^//////////////////////////////////////////////////////////",
"///////////////////////////////////////////////////////////////WZ^//////////////////////////////////////////////////////////////",
"//////////////////////////////////////////////////////////////////^/////////////////////////////////////////////////////////////",
"////////////////////////////////////////////////////////////////////////////////////////////////////////////////////////////////",
"///////////////////////////////////////////////////////////////////////////////////////////////////////////////^/^//////////////",
"/////////////////////////////////////////////////////////////////////////////////////////////////////////////////////////^//////",
"////^WQQQQQQWQW^///////////////////////////////////////EYYYRRRYRRYRRY!/////////////////////////////////^///WKMbldkbBFY!/////////",
"////Z*1<<<<<<1;B/^////////////////////////////////////A+=**********;Oj//////////////////////////////////Pz0>&++OOOO++*4rcK//////",
"////BX**&*&*&*On//////////////////////////////////////pO;**********;&5^///////////////////////////////Ht*O+**;;;=>*;**&+O*9nW///",
"//^/VO;***=*;;+M/////////////////////////////////////W<&=************&H/////////////////////////////!h&+*;==****&=****==;*&X0^//",
"////Vo;******;+n///////////////////////////////////^/A&=************>Oh////////////////////////////U5O=;******************;+z///",
"//^/BO;******;+M/^///////////////////////////////////pO=*******=****=&4^////////////////////////^/H>+;*********************>E///",
"//^/BO;******;+n////////////////////////////////////Q1********&=*****;&F/^///////////////////////P;&;**********;;********;+u////",
"////Zo;******;+n////////////////////////////////////A+*****=&>3&****&>Oh////////////////////////Q5&;*********;;****;;;***;+F/^//",
"////Bo;=*****;+n////////////////////////////////////p+>****=&7p+;****;&5^///////////////////////fO;**********++*>*&O+&**=&7^////",
"//^/Vo;=*****;+n/^/////////////////////////////////Q3&&****;OuG+;******&H//////////////////////H&;********;&*uZJYJFni4&+*Ox/////",
"////BO;******;+n///////////////////////////////////A+=*****;OzQ>******;+g//////////////////////e+=*******=&5H////////^Ff<*R/////",
"//^/BO;*******+M///////////////////////////////////iO>*****=+F/8+=*****&4!////////////////////K******=**;&1Y/^^//^//////ED//////",
"//^/Bo;=****;;+n//////////////////////////////////Q<*=******,E/jO>****&*&F////////////////////hO;*******;&F/^///////////////////",
"////BO;******;+n//////////////////////////////////D#******;+0//A+*****=>Op////////////////////8&=******;+r///////////////^//////",
"////BO;******;+n/^////////////////////////////////pO;******+k//W>&=****=&4!//////////////////P*********;+F/^////////////////////",
"//^/BO;******;+n/////////////////////////////////Q<&******;+F///q&;*****=&D//////////////////B+;******;&4^//////////////////////",
"//^/Bo;=******+M///////////////////////////////^/A+;*****=&<W/^/lO=*****=Og////////////////^/kO;******;+u///////////////////////",
"////BO;******;+n/////////////////////////////////p+;*****;#w////H&=******&4^/////////////////u+*******;Ok///////////////////////",
"////Bo;=*****;+n////////////////////////////////Q3&;*****;Oz////Q<*&*****;+F/^///////////////r+=******=+n///////////////////////",
"////BO;******;+n/^//////////////////////////////D+;*******&H/^///uO>*****;Op/////////////////e+==******+V///////////////////////",
"////BO==&****;+n////////////////////////////////p+;***=*=&3!///^/c+;******&1!////////////////6&=******;&F///////////////////////",
"//^/Bo;===***;+n///////////////////////////////!<&******;+u/^////K&*******>+A////////////////0+=******;&D/^/////////////////////",
"////BO;******;+n/^/////////////////////////////D#=******=On//////^5&;=****;+p////////////////r+=*******+B///////////////////////",
"//^/BO;**=***;+M/////////////////////////////^/pO;******&*K//^/^^/p+;*****=&<!///////////////t+=******;+m/^/////////////////////",
"//^/BO;=*****;+n//////////////////////////////Q1********=;888888791********=+D///////////////gO;******;Os/^/////////////////////",
"////Bo;******;+n////////////////////////////^/A+=***=*****&+&+&+&&&********;Op/////////////^/xO;******=#0///////////////////////",
"////Bo;******;+n/^////////////////////////////pO;*********==*===*;**********&1Q//////////////A%-**=***;*;Y//////////////////////",
"//^/VO;=*****=+n/////////////////////////////!3**********=******************=+A//////////////E;-*******;+z//////////////////////",
"////BO;******;+n/////////////////////////////A+=****************************;+i///////////////7%;******=*:I/////////////^///////",
"//^/BO;******=+n/^/^^//^^/^//^///////////////p+;****************************=&<Q////////////^/zO;********#e^/^////////////LE////",
"//^/BO;=*****=+B////////////////////////////!3&=*******=;**;;;=;;*;;-********=+Z/^////////////U**********-+wP//////////Ybe&S////",
"////Bo;*******&tbxbxbcbbbbbbbzB///////////^/D&;*******;&++++++++++++#********-+u///////////////t+;********;&;pAYWWEKVh8=O&&F////",
"////Bo;********&O+O++O+O+++++o5/////////////pO>&*******,qqqqq0qqqq0q8*********&2T//////////////K******=****;*O#*><;&#O&*;;&F////",
"//^/BO;=*******;;;;;;;;;*;*;;&7////////////Q1&*****=*;Ok////////////!,***=****=%N/////////////^/hO;*********=;******;;;***&F/^//",
"////BO;*********************=#7////////////D+;*******;+G/^////^///^//w#;*******&y///////////////^9+;*********************;&D////",
"//^/BO;***=******************&7////////////pO;******=&1W/////////////x@-********2T///////////////R5+;********************;&D////",
"//^/Bo;****************=****;#7///////////!1&=*=****;+r////////////^/G*********=%N////////////////W7O*=******************=&F////",
"////VO;==**==***=*===*=;***;;#7///////////D+>*=;*;**;On//////////////!1&;=**=**;+y/////////////////Qs*+*;**************;;*oD////",
"////BX=&&**&**&**&&**&&&*&*&*+7///////////pO&&&&&*&*&*P///////////////iO**&*&&**&:E//////////////////Fe*O&**;;;*;;;;;*&#O-eY////",
"//^/V&<<,>>>>>,>>,>>>,>>>,>,,=9//////////Q5>><>>,,,,;8^///////////////M&<::,<>::,*V/^//////////////////Hk8;#OO++O+OO+;<rbP//////",
"////!REEEEEEEEETEEEETEEEEEEYEEW//////////^EETTEEEEEREW////////////////^YTTRYREEREY!///////////////////////YDnkgaahznDKQ/////////",
"////////////////////////////////////////////////////////////////////////////////////////////////////////^///////////////////////",
"////////^////////////////////////////////////////////////////////////////////////////////////////////////////^/^///^^///////////",
"////////////////////////////////////////////////////////////////////////////////////////////////////////////////////////////////"
};
