/* XPM */
static char *result[] = {
/* columns rows colors chars-per-pixel */
"32 32 66 1 ",
"  c #003676",
". c #003D7B",
"X c #02427E",
"o c #064580",
"O c #084782",
"+ c #0C4A84",
"@ c #124E86",
"# c #144F88",
"$ c #165189",
"% c #1C558C",
"& c #1F588D",
"* c #22598E",
"= c #265D90",
"- c #295F92",
"; c #2D6294",
": c #326596",
"> c #346798",
", c #356999",
"< c #3C6D9C",
"1 c #42719F",
"2 c #4674A1",
"3 c #4977A3",
"4 c #4D7AA4",
"5 c #537EA7",
"6 c #547FA8",
"7 c #5680A9",
"8 c #5C85AC",
"9 c #5F88AE",
"0 c #6189AF",
"q c #668DB1",
"w c #688EB2",
"e c #6C91B4",
"r c #7195B7",
"t c #7397B8",
"y c #7699B9",
"u c #7B9CBC",
"i c #81A1BF",
"p c #85A3C1",
"a c #89A7C3",
"s c #8DAAC5",
"d c #91ADC7",
"f c #93AEC8",
"g c #97B2CA",
"h c #9BB4CC",
"j c #A1B8CF",
"k c #A4BBD1",
"l c #A8BED2",
"z c #ADC1D5",
"x c #B1C5D7",
"c c #B4C7D9",
"v c #B6C8DA",
"b c #BBCDDD",
"n c #C4D3E1",
"m c #C8D6E3",
"M c #CDDAE6",
"N c #D0DCE7",
"B c #D3DEE9",
"V c #D7E1EB",
"C c #DDE5ED",
"Z c #E0E8EF",
"A c #E4EBF1",
"S c #E9EFF4",
"D c #ECF1F5",
"F c #F1F5F8",
"G c #F6F8FA",
"H c #FEFFFF",
/* pixels */
"HHHHHHHHHHHHHHHSCHHHHHHHHHHHHHHH",
"HHHHHHHHHHHHHHh*=pDHHHHHHHHHHHHH",
"HHHHHHHHHHHHxuj6+X:hHHHHHHHHHHHH",
"HHHHHHHHHHN9@X,hj3O+1bHHHHHHHHHH",
"HHHHHHHHAu%X-3Oo3ks;o3xVHHHHHHHH",
"HHHHHHHn-X#qjhh>X+uhXqt+lHHHHHHH",
"HHHHHHHh.6ka;.3Ni$=gX8i tHHHHHHH",
"HHHHHHHvah<X+4xHHNifo0uXuHHHHHHH",
"HHHHHHHN4+o3zHHHHHHjX0uXuHGHHHHH",
"HHHHHHHhX-dhhHHHHGHk 7i.uHHHHHHH",
"HHHHHHHlo9k wHHHHHHh*veXuHHHHHHH",
"HHHHHHHkX9u.uHGHHHHZk9$XiHHHHHHH",
"HHHHHHHlX8p.tAHHHHVe%.;pmHHHHHHH",
"HHHHHHHlX8p.u78ZHt#X$uz7yHHHHHHH",
"HHHHHHHk 8p.p8 =ph18zu* tHHHHHHH",
"HHHHHHHSt0uX6z8+X3hd:X@9VHHHHHHH",
"HHHHHHHHHDs++;dh3X@+O3bHHHHHHHHH",
"HHHHHHHHHHHb3+o3ks*:hHHHHHHHHHHH",
"HHHHHHHHHHHHHh>oXqVDHHHHHHHHHHHH",
"HHHHHHHHHHHHHHFuqMHHHHHHHHHHHHHH",
"HHHHHHHHHHHHHHHHHHHHHHHHHHHHHHHH",
"Hu3yHHHHHHHHHb351zHHHHHHHmw317dD",
"H<.<HHHHHHHHH8o$o4HHHHHHk@+o+ *D",
"H4+3HHHHHHHHD=%8**ZHHHHC%$;kbuhH",
"H3O3HHHHHHHHl+=b>ohHGHHs+$kHHHHH",
"H3O3HHHHHHHHqo<H7o7HHHHq+&CHHHHH",
"H3+1HHHHHHHS-+qGp+*CHHH0+=AHHHHH",
"H3+3HHHHHHHz+&;>;*+gHGHy@$mHHHHH",
"H3+1CCCSHHH0@*@@@%#5HHHv+%3CSMzH",
"H3+%%%+8HHS=+<MMM5+%VHHG6o@%-o,H",
"H7=;;;*eHHx**pHHHj**hHHHFy:&&=uH",
"HDDDDDDFHHFDDGHHHGDDFHHHHHDVVDHH"
};
