/* XPM */
static char *result[] = {
/* columns rows colors chars-per-pixel */
"64 64 69 1 ",
"  c #003F7C",
". c #03427E",
"X c #064581",
"o c #094782",
"O c #0D4A84",
"+ c #124E86",
"@ c #144F88",
"# c #165087",
"$ c #185187",
"% c #165188",
"& c #1C558C",
"* c #1F588D",
"= c #21598E",
"- c #255C90",
"; c #285E92",
": c #2C6194",
"> c #316596",
", c #346798",
"< c #366999",
"1 c #3B6D9B",
"2 c #42719F",
"3 c #4675A1",
"4 c #4977A2",
"5 c #4D7AA4",
"6 c #527DA6",
"7 c #547FA8",
"8 c #5681A9",
"9 c #5C85AC",
"0 c #6189AF",
"q c #658CB1",
"w c #698EB2",
"e c #6C92B5",
"r c #7194B6",
"t c #7497B8",
"y c #7698B9",
"u c #7C9DBC",
"i c #81A1BF",
"p c #84A3C1",
"a c #8DAAC5",
"s c #91ADC7",
"d c #93AEC8",
"f c #96B1C9",
"g c #9DB5CD",
"h c #9FB8CE",
"j c #A1B5C8",
"k c #A1B9CF",
"l c #A5BBD1",
"z c #A9BED3",
"x c #AEC2D5",
"c c #B0C4D7",
"v c #B2C5D8",
"b c #B6C8DA",
"n c #BBCCDC",
"m c #C3D1DF",
"M c #C5D4E1",
"N c #C9D6E3",
"B c #CEDAE6",
"V c #D1DCE7",
"C c #D3DEE9",
"Z c #D6E1EA",
"A c #DBE4ED",
"S c #E0E8EF",
"D c #E4EBF1",
"F c #E9EFF4",
"G c #ECF1F6",
"H c #F0F4F7",
"J c #F3F6F9",
"K c #F6F9FB",
"L c #FFFFFF",
/* pixels */
"LLLLLLLLLLLLLLLLLLLLLLLLLLLLLLLLLLLLLLLLLLLLLLLLLLLLLLLLLLLLLLLL",
"LLLLLLLLLLLLLLLLLLLLLLLLLLLLLLLbdKLLLLLLLLLLLLLLLLLLLLLLLLLLLLLL",
"LLLLLLLLLLLLLLLLLLLLLLLLLLLLLZ9+o1zLLLLLLLLLLLLLLLLLLLLLLLLLLLLL",
"LLLLLLLLLLLLLLLLLLLLLLLLLLLKy+@-=%O5nLLLLLLLLLLLLLLLLLLLLLLLLLLL",
"LLLLLLLLLLLLLLLLLLLLLLLLLLbGM5+%===+%qALLLLLLLLLLLLLLLLLLLLLLLLL",
"LLLLLLLLLLLLLLLLLLLLLLLLn3O<vLb<o&==&+=uGLLLLLLLLLLLLLLLLLLLLLLL",
"LLLLLLLLLLLLLLLLLLLLLLV9+@=%O4NKf=O&==&O:gKLLLLLLLLLLLLLLLLLLLLL",
"LLLLLLLLLLLLLLLLLKLLDy&+**=**@+qDGt++===&+1MLLLLLLLLLLLLLLLLLLLL",
"LLLLLLLLLLLLLLLLLLKd;O&*=&O%==&O&pJZ8O%&&-XtGSLLLLLLLLLLLLLLLLLL",
"LLLLLLLLLLLLLLLLLx1O&===O&w:o&-*&o;hLn1&==OpV&sJLLLLLLLLLLLLLLLL",
"LLLLLLLLLLLLLLLN5O%*&=++qAJGu%+*==%O1nK1@-opZ+O1xLLLLLLLLLLLLLLL",
"LLLLLLLLLLLLLLL3X-*-%O3MJa-rFA9+%===+=K6+-opZ@-%+VLLLLLLLLLLLLLL",
"LLLLLLLLLLLLLLL5%-&o:xKx:o&o;dFb2O%=*>K5+-opZ%**%BLLLLLLLLLLLLLL",
"LLLLLLLLLLLLLLL5%O&aKN3o%-&-OXaLKh:O%>K5@=opZ@*&&VLLLLLLLLLLLLLL",
"LLLLLLLLLLLLLLL2orFSqO%*&-%@6NLLLLGi&&K5+-opZO**%BLLLLLLLLLLLLLL",
"LLLLLLLLLLLLLLLiBJi&O&&*&O1xLLLLLLLLAtH5@=opZ#**%VLKLLLLLLLLLLLL",
"LLLLLLLLLLLLLLLLk;O&*-&o;fKLLLLLLLLKLLL5@=opZ@*&&VLLLLLLLLLLLLLL",
"LLLLLLLLLLLLLLL0.&**&+&uJLLLLLLLLLLLLLL5+-opZ%&*%VLLLLLLLLLLLLLL",
"LLLLLLLLLLLLLLL3@**%@0DKuMLLLLLLLLLLLLL4@=OpZ+&*%BLLLLLLLLLLLLLL",
"LLLLLLLLLLLLLLL5+=%1nLh:.MLKLLLLLLLLLLL4+;OuC%*&%BLLLLLLLLLLLLLL",
"LLLLLLLLLLLLLLL4@=oiK1O&%MLLLLLLLLLLLLL5%%olA%&*%VLKLLLLLLLLLLLL",
"LLLLLLLLLLLLLLL5+-OiA+==#NLLLLLLLLLLLLL2X6VLp%**%VLLLLLLLLLLLLLL",
"LLLLLLLLLLLLLLL5@=ouD&&&$mLLLLLLLLLLLLLqvLb1+*&*&VLLLLLLLLLLLLLL",
"LLLLLLLLLLLLLLL5+-OuS%&=#MLKLLLLLLLLLLLLZ6O%**=++CLLLLLLLLLLLLLL",
"LLLLLLLLLLLLLLL5@-ouA%&*%MLLLLLLLLLLLLAe@@&*=%o5BLLLLLLLLLLLLLLL",
"LLLLLLLLLLLLLLL5+=ouD%==+BxMLLKLLLLLGp-O&-=&o,xLlZLLLLLLLLLLLLLL",
"LLLLLLLLLLLLLLL5+-OuS%&=+CuXuDLLLLLk>O&==&o*aKN3oBLLLLLLLLLLLLLL",
"LLLLLLLLLLLLLLL6+-ouD%&&+CpO+;dKLV<o&=**+%eGDq+%&BLLLLLLLLLLLLLL",
"LLLLLLLLLLLLLLL6$=oiS%&=+CiO-&O1xJg:O&%O5CJp&O&=&BLLLLLLLLLLLLLL",
"LLLLLLLLLLLLLLL2o-+uS%&=+Cu.===%O8ZJi%<nLl:o&==&oBLLLLLLLLLLLLLL",
"LLLLLLLLLLLLLLLM3+oiS@&=+MA3O%===+%tGDKM1O&==*+&uGLLLLLLLLLLLLLL",
"LLLLLLLLLLLLLLLLLk&tD&&&&>lKc>O%==*o=dqo%=&=@+9CLLLLLLLLLLLLLLLL",
"LLLLLLLLLLLLLLLLLLDMZO*=&%o3MKd=O**=&o@&==%O4nLLKLLLLLLLLLLLLLLL",
"LLLLLLLLLLLLLLLLLLLLG9++-*=%O9AFt%+***&-&+,kLLLLLLLLLLLLLLLLLLLL",
"LLLLLLLLLLLLLLLLLLLLLLb3O%=&*O%uGZ9o@-*O=pGLLLLLLLLLLLLLLLLLLLLL",
"LLLLLLLLLLLLLLLLLLLLLLLLk>O&*-&O-fKM2O%eALLLLLLLLLLLLLLLLLLLLLLL",
"LLLLLLLLLLLLLLLLLLLLLLLLLGp=O&==%O1xGgMLLLLLLLLLLLLLLLLLLLLLLLLL",
"LLLLLLLLLLLLLLLLLLLLLLLLLLLAe%+=-&.:BLLLLLLLLLLLLLLLLLLLLLLLLLLL",
"LLLLLLLLLLLLLLLLLLLLLLLLLLLLLM6+O;dKLLKLLLLLLLLLLLLLLLLLLLLLLLLL",
"LLLLLLLLLLLLLLLLLLLLLLLLLLLLLLLluFLLLLLLLLLLLLLLLLLLLLLLLLLLLLLL",
"LLLLKLKLLLLLLLLLLLLLLLLLLLLLKKLLLLKLLLLLLLLLLLLLLLLLKLLLLLLKLLLL",
"LLLLLLLLLLLLLLLLLLLLLLLLLLLLLLLLLLLLLLLLLLLLLLLLLLLLLLLLLLLLLLLL",
"LLxpsapcLLLLLLLLLLLLLLLLLLLxupupiukLLLLLLLLLLLLLLLLLCfe869uhCLLL",
"LL8 +O.8LLLLLLLLLLLLLLLLLLK>XOOOOo&FLLLLLLLLLLLLLLZ8&OO++OOO&3NL",
"LLq+==#0LKLLLLLLLLLLLLLLLLM%-=-*=;+zLLLLLLLLLLLLLv&O*==-====&+VL",
"LL0+==+0LLLLLLLLLLLLLLLLLLuo*&&*&&+9LLLLLLLLLLLLn+&=&*%O++%=+9LL",
"KL0O==O0LLLLLLLLLLLLLLLLLK1%*%28+=&;DLLLLLLLLLLG>%*&*+>ruw1%.cLK",
"LL0O==O0LLLLLLLLLLLLLLLLLM@&-oehO=&OlLLLLLLLLLLaO=&=+9GLLLLMiJLL",
"LL0+==O9LLLLLLLLLLLLLLLLLuo==OlA@==O9LLLLLLLLLL2%*&&:HLKLLLLLLLL",
"KL0O==+0LLLLLLLLLLLLLLLLK1%*&%BL>%&&=DLLLLLLLLA&&&=OiLLLLLLLLLLL",
"LL0O&=+0LLLLLLLLLLLLLLLLM@&*%<JL0+=*OlLLLLLLKLn+=&*+bLLLLLLLLLLL",
"LL0+==O0LLLLLLLLLLLLLLLLuO==OqLLhO==+9LLLLLLLLlO=&&%BLLLLLLLLLLL",
"KL0+=*+9LLLLLLLLLLLLLLLK1%==OlLLZ&&&&=DLLLLLKLkO=&&&ALLLLLLLLLLL",
"LL0O==+0LLLLLLLLLLLLLLLN%*&&&VKKJ1%==OlLLLLLLLxO-&=%BLLLLLLLLLLL",
"LL0O*=O0LKLLLLLLLLLLLLLuO=&*&<<<<;&&=+8LLLLLLLn+&&-OcLKLLLLLLLLL",
"KL0+=*+9LKLLKLLLLLLLLLK1%&&&&&%%%&&&&&=DLLLLLLS=&&&+eLKLLLLLLLLL",
"LLqO*=+qLLLLLLLLLLLLLLN%=&&&====-&&&&=OkLKLLLLL3%=&&%mLLLLLLLGLL",
"LL9+=*+5NMMNNNMDLLLLLLuO=&*&OOOOOO$===+7LLLLLLLdo=*&&;gAFDMd1rLL",
"LL0O&&&&%%%%%%XhLLLLLK1%&*%1xllzlz9+==%=SLLLLLLG<%=&&&O=:;++.eLL",
"KL0+==&&=*&==-OhLKLLLM%&&=OiLLLLLLn+===+jLKLLLLLM&#==&*&%&=-%rLK",
"LL9o&%&&&&%&&&ohLKLLLuo&&*+nKKLLKLF;#&&+6LLLLLLLLM>o%&****&&.qLL",
"LLw&:;;;;;;;;:%lLLLLK3=:;=,GLLLLLLL8&;;=:SLLLLLLLLGa2=@+++&,qNLL",
"LLHFGFFFFFFFFFFKLLLLLFFFFFGLLLLLLLLHFGGFFKLLLLLLLLLLLAMbnMAKLLLL",
"LLLLLLLLLLLLLLLLLLLLLLLLLLLLLLLLLLLLLLLLLLLLLLLLLLLLLLLLLLLLLLLL"
};
