/* XPM */
static char *result[] = {
/* columns rows colors chars-per-pixel */
"16 16 134 2 ",
"   c white",
".  c #FEFFFF",
"X  c #FCFDFE",
"o  c #AABFD4",
"O  c #89A7C3",
"+  c #FDFEFE",
"@  c #FCFDFD",
"#  c #FEFEFE",
"$  c #C2D2E0",
"%  c #5983AA",
"&  c #5A83AB",
"*  c #42729F",
"=  c #4574A0",
"-  c #BBCCDC",
";  c #FEFEFF",
":  c #ECF1F5",
">  c #6189AF",
",  c #316596",
"<  c #4F7BA5",
"1  c #386A9A",
"2  c #4473A0",
"3  c #4E7BA5",
"4  c #326697",
"5  c #E3EAF0",
"6  c #FDFDFE",
"7  c #D1DDE8",
"8  c #4A77A3",
"9  c #537EA7",
"0  c #3E6E9D",
"q  c #BCCDDD",
"w  c #98B2CB",
"e  c #698FB3",
"r  c #2F6395",
"t  c #AEC2D5",
"y  c #DBE4EC",
"u  c #376A99",
"i  c #4A78A3",
"p  c #C4D3E1",
"a  c #C0D0DF",
"s  c #3E6F9D",
"d  c #B0C4D7",
"f  c #3C6D9C",
"g  c #507CA6",
"h  c #B8CADA",
"j  c #E4EBF1",
"k  c #638AAF",
"l  c #285E92",
"z  c #BFCFDE",
"x  c #C3D2E0",
"c  c #356898",
"v  c #7497B8",
"b  c #CCD9E5",
"n  c #EAEFF4",
"m  c #5F87AD",
"M  c #537EA8",
"N  c #CBD8E4",
"B  c #DCE5ED",
"V  c #547FA8",
"C  c #5982AA",
"Z  c #4775A1",
"A  c #CEDAE6",
"S  c #95B0C9",
"D  c #2C6194",
"F  c #4675A1",
"G  c #7598B9",
"H  c #E9EFF4",
"J  c #FBFCFD",
"K  c #FCFCFD",
"L  c #E2E9F0",
"P  c #7397B8",
"I  c #88A6C3",
"U  c #E9EEF4",
"Y  c #D6E0EA",
"T  c #AFC3D6",
"R  c #F6F8FA",
"E  c #AAC0D4",
"W  c #C3D2E1",
"Q  c #FAFCFD",
"!  c #F3F6F9",
"~  c #9FB7CE",
"^  c #92ADC7",
"/  c #D7E1EA",
"(  c #8AA8C4",
")  c #1D568C",
"_  c #99B3CB",
"`  c #003F7D",
"'  c #2D6294",
"]  c #F1F4F8",
"[  c #F4F7F9",
"{  c #40709E",
"}  c #A0B8CF",
"|  c #93AEC8",
" . c #2E6294",
".. c #F9FAFC",
"X. c #4674A1",
"o. c #8BA8C4",
"O. c #4373A0",
"+. c #ABC0D4",
"@. c #B6C8DA",
"#. c #0E4A84",
"$. c #E5ECF2",
"%. c #92AEC8",
"&. c #306495",
"*. c #E6ECF2",
"=. c #185289",
"-. c #658CB1",
";. c #2A6093",
":. c #678DB2",
">. c #ADC2D5",
",. c #134E87",
"<. c #90ACC6",
"1. c #114D86",
"2. c #6E92B5",
"3. c #88A6C2",
"4. c #8DAAC5",
"5. c #0F4C85",
"6. c #7295B7",
"7. c #1B548A",
"8. c #EFF3F6",
"9. c #EBF0F5",
"0. c #245B90",
"q. c #4C79A4",
"w. c #6E93B5",
"e. c #C7D5E3",
"r. c #7C9DBD",
"t. c #6F93B6",
"y. c #A3BAD0",
"u. c #97B1CA",
"i. c #EDF2F6",
"p. c #799ABA",
"a. c #DFE7EF",
"s. c #D4DFE9",
"d. c #6D92B5",
"f. c #CFDBE7",
/* pixels */
"      . X     o O +   @ #       ",
"          $ % & * = -           ",
"  ; # : > , < 1 2 3 4 O 5 . #   ",
"  6   7 8 9 0 q w e < r t   @   ",
"  +   y u i p     a s = d   @   ",
"  6   p f g h     j k l z   X   ",
"  6   x c 8 v b n m 2 M N   6   ",
"  #   B m f V 0 < C Z 4 A ; 6   ",
"+ @     X S D i F 4 G H   J K + ",
"      ;     L P I U             ",
"Y T #   # X R E W   Q   ! ~ ^ / ",
"( ) @   Q   _ ` ' ] # [ { 4 8 } ",
"|  ...@ 6   X.o.O.+.  @.#.$.    ",
"%.&.      *.=.-.;.:.  >.,.!     ",
"<.1.2.3.  4.5.6.< 7.8.9.0.q.w.d ",
"e.r.t.I   y.u.  i.p.a.  s.d.:.f."
};
